<?xml version="1.0" encoding="utf-8"?>

<!DOCTYPE svg PUBLIC "-//W3C//DTD SVG 1.1//EN" "http://www.w3.org/Graphics/SVG/1.1/DTD/svg11.dtd">
<!-- Uploaded to: SVG Repo, www.svgrepo.com, Generator: SVG Repo Mixer Tools -->
<svg height="800px" width="800px" version="1.1" id="_x32_" xmlns="http://www.w3.org/2000/svg" xmlns:xlink="http://www.w3.org/1999/xlink" 
	 viewBox="0 0 512 512"  xml:space="preserve">
<style type="text/css">
	.st0{fill:#000000;}
</style>
<g>
	<path class="st0" d="M483.342,324.15c-3.526-14.178-11.073-27.365-21.719-38.012l-0.068-0.069c0-0.068-0.069-0.068-0.069-0.068
		l-0.069-0.069c-9.592-9.593-20.879-16.506-33.356-20.383c-7.892-2.465-16.149-3.664-24.68-3.664c-1.13,0-2.328,0-3.457,0.069
		c-13.958,0.496-28.137,4.304-41.951,11.073c-13.538,6.625-26.236,15.866-37.798,27.428c-11.707,11.706-20.804,25.032-26.794,39.134
		c-2.259,5.006-4.022,10.157-5.358,15.37l-0.428,1.694c-1.266,4.868-2.045,9.806-2.534,14.812c-0.076,0.916-0.144,1.9-0.22,2.816
		c-0.138,1.976-0.207,3.877-0.207,5.853c0,1.908,0.069,3.808,0.207,5.784c-0.909,17.346-4.724,33.35-11.28,47.666
		c-5.495,11.844-12.974,22.78-22.284,32.366l-1.55,1.481c-2.54,2.541-7.12,7.052-14.316,14.034
		c-5.144,5.075-9.518,9.379-10.716,10.508c-0.847,0.916-2.045,2.252-3.03,4.091c-0.068,0.138-0.145,0.282-0.213,0.488
		c-52.398-0.419-96.676-7.189-128.477-15.583v-30.389H80.278v26.863c-11.707-3.595-21.155-7.334-27.779-10.784
		c-4.228-2.19-7.334-4.235-9.028-5.784c-0.778-0.634-1.198-1.13-1.412-1.412c-0.207-3.03-0.351-5.991-0.351-8.814
		c0-17.416,4.304-30.107,10.86-40.12c9.806-14.881,25.672-23.978,42.102-30.182c8.25-3.106,16.568-5.502,24.184-7.547
		c7.685-2.045,14.599-3.739,20.307-5.777c5.778-2.045,12.195-4.731,18.338-8.112c6.693,8.883,16.279,15.796,28.206,20.376
		c12.409,4.724,27.215,7.127,44.278,7.127c16.045,0,30.024-2.204,41.965-6.391c0-2.238,0.075-4.4,0.234-6.645l0.22-2.913
		c0.152-1.578,0.393-2.961,0.586-4.435c-1.068,0.475-2.101,0.971-3.23,1.412c-10.577,4.022-23.909,6.273-39.775,6.273
		c-15.866,0-29.197-2.252-39.774-6.273c-9.868-3.877-17.202-9.234-22.208-15.728c2.472-1.969,4.724-4.083,6.631-6.625
		c2.816-3.67,5-8.318,5-13.538v-35.609l-1.97-2.258c-10.577-11.775-24.894-27.359-29.9-55.214l-0.772-4.442l-4.235-1.48
		c-2.679-0.992-4.793-1.977-6.556-3.175c-2.679-1.9-5.075-4.442-7.898-9.661c-2.754-5.22-5.715-13.042-8.884-24.329
		c-1.412-4.93-1.907-8.739-1.907-11.562c0-3.312,0.64-5.288,1.274-6.486c0.985-1.763,2.183-2.541,3.663-3.175
		c1.267-0.42,2.534-0.565,3.03-0.633l6.418,0.847c6.28,8.814,11.142,20.025,11.142,20.025v-49.36c0,0,4.937-1.129,12.554-3.03
		h152.523c1.13,0.42,1.763,0.702,1.763,0.702l4.724,39.913c0,0,6.556-4.303,12.34-9.028c0.992,0.145,2.679,0.496,3.877,1.274
		c0.916,0.558,1.618,1.267,2.328,2.465c0.64,1.198,1.274,3.174,1.274,6.486c0,2.824-0.496,6.632-1.907,11.562
		c-4.304,15.094-8.106,23.834-11.632,28.702c-1.763,2.465-3.388,4.021-5.219,5.288c-1.763,1.198-3.815,2.183-6.487,3.175
		l-4.304,1.48l-0.778,4.442c-4.93,27.855-19.254,43.439-29.831,55.214l-2.038,2.258v35.609c0,5.075,2.038,9.661,4.724,13.325
		c0.193,0.262,0.454,0.454,0.654,0.709c1.239-3.87,2.596-7.651,4.207-11.218c1.735-4.084,3.732-8.091,5.922-12.03v-20.472
		c10.157-11.287,24.68-28.702,30.678-56.412c2.114-0.916,4.159-1.976,6.135-3.388c4.93-3.381,9.166-8.388,12.691-15.088
		c3.601-6.769,6.769-15.446,10.157-27.29c1.763-6.066,2.534-11.21,2.534-15.866c0-5.357-1.13-10.012-3.099-13.82
		c-2.685-5.006-6.776-7.968-10.439-9.662c1.412-6.906,2.327-13.958,2.961-20.941c0.778-1.129,1.343-2.396,1.343-3.739V86.3
		c0-1.694-0.709-3.312-1.838-4.51c-0.771-0.778-1.763-1.198-2.816-1.481c-6.488-31.312-19.881-54.862-35.54-57.472
		c-65.791-51.756-108.1,2.328-173.96-9.448c-10.508,17.56-14.461,42.874-15.301,67.768c-0.282,0.207-0.634,0.351-0.923,0.633
		c-1.198,1.198-1.832,2.816-1.832,4.51v49.361c0,1.625,0.634,3.313,1.832,4.442c0.991,1.06,2.328,1.55,3.746,1.763
		c0.909,7.968,1.831,14.317,2.465,18.124c-1.198,0.42-2.397,0.916-3.664,1.694c-2.892,1.763-5.784,4.51-7.76,8.319
		c-2.046,3.808-3.106,8.463-3.106,13.82c0,4.656,0.778,9.875,2.472,15.866c4.579,15.798,8.67,25.948,13.958,33.426
		c2.61,3.732,5.647,6.7,8.883,8.952c2.052,1.412,4.091,2.472,6.211,3.388c5.922,27.71,20.452,45.125,30.603,56.412v29.686
		c0,0.916-0.358,2.252-1.832,4.16c-2.121,2.892-6.487,6.349-11.775,9.31c-5.22,2.961-11.211,5.495-16.5,7.403
		c-6.142,2.183-16.155,4.442-27.296,7.685c-16.706,4.793-36.524,11.775-52.673,25.596c-8.036,6.914-15.087,15.584-20.025,26.374
		c-5.006,10.791-7.83,23.551-7.83,38.57c0,3.456,0.145,7.051,0.428,10.79c0.282,2.61,1.267,4.724,2.396,6.488
		c2.258,3.243,5.151,5.64,8.883,8.18c6.418,4.228,15.37,8.388,26.802,12.478c33.701,12.058,89.197,23.062,158.024,23.344
		c1.054,0.069,2.108,0.069,3.237,0.069c4.655,0,9.31-0.069,13.827-0.144c3.168-0.069,6.267-0.138,9.304-0.276
		c6.273-0.214,12.485-0.496,18.545-0.923c38.921-2.534,72.346-8.387,98.018-15.37c17.202-4.655,30.953-9.73,40.821-14.881
		c5.014-2.534,9.035-5.075,12.203-7.823c1.625-1.412,3.03-2.892,4.159-4.654c1.199-1.763,2.19-3.877,2.397-6.488
		c0.048-0.592,0.041-1.122,0.082-1.707c-3.264,1.838-6.576,3.567-9.93,5.088c-5.605,2.562-11.245,4.718-16.727,6.37
		c-5.853,1.769-12.519,2.947-19.357,3.677c-1.419,0.482-2.768,0.971-4.27,1.453v-0.992c-2.754,0.2-5.509,0.351-8.25,0.351
		c-1.425,0-2.851-0.048-4.27-0.117c-0.062,0.007-0.117,0.013-0.178,0.027v4.531c-7.396,1.976-15.439,3.952-24.185,5.716
		c-15.866,3.244-33.846,5.991-53.658,7.967c8.18-7.265,18.682-13.821,30.534-18.971c14.592-6.411,30.458-10.433,47.102-11.983h0.207
		c1.487,0.069,2.961,0.138,4.448,0.138c2.748,0,5.495-0.138,8.25-0.351c7.12-0.565,14.103-1.832,19.956-3.595
		c5.144-1.556,10.219-3.526,15.156-5.784c5.288-2.397,10.433-5.22,15.446-8.463c7.685-4.862,14.943-10.646,21.65-17.347
		c10.219-10.226,18.682-21.436,25.1-33.35c4.793-8.959,8.463-18.193,10.722-27.504c1.763-7.471,2.741-14.95,2.741-22.283
		C485.807,337.406,484.967,330.706,483.342,324.15z M121.182,92.649h206.821v36.663H121.182V92.649z M238.233,496.416l0.916-0.916
		l0.916,0.916H238.233z M265.035,495.287c-5.289,0.352-10.722,0.634-16.293,0.848l-5.082-5.076c0.22-0.213,0.358-0.357,0.565-0.564
		c2.754-2.679,4.944-4.8,6.914-6.77l16.713,8.67C267.004,493.242,266.089,494.227,265.035,495.287z M272.858,487.388l-0.358,0.351
		l-16.568-8.67c1.061-0.984,1.976-1.976,2.754-2.678l1.474-1.556h0.076v-0.069c2.747-2.816,5.288-5.709,7.76-8.745l13.746,13.752
		C278.573,482.244,275.537,484.709,272.858,487.388z M470.795,363.636c-1.976,8.181-5.22,16.431-9.524,24.467
		c-5.846,10.79-13.538,21.016-22.986,30.465c-4.511,4.51-9.379,8.6-14.454,12.195c-4.586,3.388-9.311,6.28-14.241,8.814
		c-5.929,3.036-12.064,5.502-18.269,7.409c-6.7,2.046-16.148,3.381-24.536,3.381c-1.556,0-2.961,0-4.38-0.068l-0.138-0.069h-0.42
		l-0.496,0.069h-0.145c-18.049,1.618-35.257,5.991-51.192,12.973c-8.387,3.67-16.072,7.968-23.054,12.836l-15.164-15.164
		c5.151-6.907,9.593-14.24,13.187-22.07c7.334-15.934,11.493-33.563,12.416-52.459v-0.847c-0.144-1.839-0.144-3.602-0.144-5.433
		c0-2.465,0.068-5.006,0.282-7.472c0.282-3.244,0.771-6.563,1.481-9.806c1.198-5.496,2.892-10.998,5.075-16.431
		c5.426-13.256,13.896-25.948,25.038-37.09c10.646-10.646,22.208-19.04,34.404-25.031c12.416-6.066,24.825-9.31,36.882-9.799h0.427
		c0.84,0,1.694-0.076,2.534-0.076c7.265,0,14.316,1.06,20.948,3.174c10.577,3.313,20.025,9.028,28.274,17.347l0.069,0.069
		l0.069,0.076c9.096,9.096,15.438,20.238,18.406,32.083c1.343,5.502,2.046,11.21,2.046,17.133
		C473.192,350.594,472.413,357.005,470.795,363.636z"/>
	<path class="st0" d="M312.04,435.701c-2.872-2.872-5.495-6.053-7.822-9.455l-1.384-2.032l-0.71,2.355
		c-1.742,5.784-3.877,11.418-6.349,16.761c-2.652,5.743-5.799,11.355-9.324,16.665l1.605,1.646
		c5.488-3.402,11.424-6.508,17.642-9.228c5.282-2.314,10.846-4.366,16.548-6.102l2.41-0.73l-2.107-1.377
		C318.707,441.685,315.174,438.82,312.04,435.701z"/>
	<path class="st0" d="M385.241,289.851c-0.014,0.006-0.028,0.006-0.048,0.013l0.819-0.2L385.241,289.851z"/>
	<path class="st0" d="M444.139,306.659v-0.213l-1.48-1.481c-7.616-7.616-16.712-12.905-26.801-15.37
		c-4.648-1.198-9.448-1.763-14.31-1.763c-5.358,0-10.791,0.702-16.292,2.046h-0.069c-7.052,1.694-14.034,4.441-20.941,8.18
		c-9.304,5.007-18.194,11.707-26.298,19.812c-9.944,10.012-17.56,21.506-22.215,33.777c-0.847,2.114-1.556,4.304-2.19,6.487
		c-0.84,2.823-1.474,5.715-1.9,8.532c-0.702,4.022-1.06,7.968-1.06,11.92c0,6.838,1.06,13.539,3.174,19.812
		c2.748,8.394,7.334,15.797,13.47,22.002c6.204,6.135,13.682,10.722,22.001,13.539l0.426,0.144
		c6.129,1.97,12.685,2.961,19.392,2.961c2.176,0,4.366-0.069,6.556-0.283c10.715-0.984,21.361-4.441,31.305-9.874
		c4.655-2.534,9.096-5.495,13.401-8.814c3.243-2.61,6.418-5.358,9.448-8.388c9.166-9.096,16.431-19.185,21.65-29.762
		c5.075-10.432,7.96-21.01,8.318-31.373c0.069-0.779,0.069-1.626,0.069-2.472c0-6.06-0.84-11.914-2.604-17.484
		C454.64,320.48,450.137,313.078,444.139,306.659z M447.52,331.622c0.992,3.03,1.488,6.349,1.832,9.661l-8.739,8.745l-19.392-19.392
		l16.286-16.362C442.163,319.564,445.55,325.273,447.52,331.622z M351.829,351.93l18.413-18.4l19.392,19.392l-17.284,17.27
		l-1.13,1.13L351.829,351.93z M366.641,375.976l-5.998,5.991l-11.348,11.286l-19.392-19.392l1.267-1.274l12.554-12.616l3.457-3.457
		l6.411,6.418L366.641,375.976z M374.823,328.874l17.697-17.704l19.468,19.467l-17.705,17.629L374.823,328.874z M378.63,373.229
		l15.652-15.728l19.392,19.461l-12.264,12.271l-6.142,6.135l-19.392-19.392L378.63,373.229z M398.869,352.921l17.698-17.704
		l19.392,19.467l-17.629,17.629L398.869,352.921z M405.569,298.197c2.672,0.213,5.288,0.496,7.823,1.129
		c7.189,1.832,13.607,5.289,19.461,10.44l-16.286,16.217l-19.392-19.392L405.569,298.197z M396.259,298.272l-3.74,3.663
		l-2.679-2.679C392.031,298.83,394.138,298.479,396.259,298.272z M369.044,306.873c4.504-2.396,9.021-4.159,13.538-5.64l5.358,5.358
		l-17.698,17.697l-11.073-11.141C362.406,310.819,365.657,308.705,369.044,306.873z M345.067,324.991
		c2.892-2.817,5.853-5.427,8.814-7.823l11.707,11.706l-18.407,18.4l-11.424-11.424C338.58,332.118,341.61,328.448,345.067,324.991z
		 M323.21,360.889c0.634-2.046,1.336-4.091,2.108-6.067c1.763-4.586,4.021-9.027,6.706-13.401l10.578,10.509l-6.074,5.998
		l-11.28,11.279l-3.099-3.106C322.5,364.338,322.714,362.652,323.21,360.889z M323.279,395.23
		c-1.342-3.953-1.976-8.181-2.258-12.485l4.228-4.304l19.392,19.468L332.024,410.6C328.14,406.083,325.179,401.008,323.279,395.23z
		 M364.101,426.604c-4.091-0.42-7.961-1.053-11.707-2.252c-5.991-1.976-11.211-5.082-15.79-9.097l12.691-12.767l19.392,19.461
		L364.101,426.604z M373.128,426.748l0.214-0.214l0.206,0.214H373.128z M373.342,417.301l-19.392-19.392l13.042-13.119l4.228-4.228
		l19.391,19.461l-0.137,0.138L373.342,417.301z M403.173,417.438c-6.983,3.953-14.248,6.7-21.513,8.181l-3.732-3.67l17.34-17.347
		l11.004,11.004C405.211,416.24,404.226,416.873,403.173,417.438z M422.633,402.558c-2.12,2.12-4.373,4.166-6.632,5.929
		c-1.412,1.267-2.816,2.328-4.235,3.381l-11.844-11.844l6.067-6.067l12.34-12.408l12.126,12.196
		C428.06,396.78,425.456,399.74,422.633,402.558z M442.3,375.48c-2.107,4.442-4.793,8.814-7.823,13.05l-11.569-11.569l17.704-17.698
		l5.853,5.854C445.337,368.574,444.063,372.031,442.3,375.48z M448.373,357.782l-3.112-3.098l4.166-4.235
		C449.214,352.846,448.863,355.317,448.373,357.782z"/>
</g>
</svg>